<svg width="205" height="183" viewBox="0 0 205 183" fill="none" xmlns="http://www.w3.org/2000/svg">
<path fill-rule="evenodd" clip-rule="evenodd" d="M101.113 168.578C126.95 168.578 147.022 151.475 147.022 131.354C147.022 111.232 126.95 94.1303 101.113 94.1303C75.2765 94.1303 55.2039 111.232 55.2039 131.354C55.2039 151.475 75.2765 168.578 101.113 168.578ZM101.113 171.059C127.839 171.059 149.504 153.283 149.504 131.354C149.504 109.425 127.839 91.6487 101.113 91.6487C74.3877 91.6487 52.7224 109.425 52.7224 131.354C52.7224 153.283 74.3877 171.059 101.113 171.059Z" fill="black"/>
<path d="M67.3616 124.262V140.461C67.3616 146.883 72.5865 152.107 79.0092 152.107H122.259C128.681 152.107 133.906 146.883 133.906 140.461V124.262C133.906 117.84 128.681 112.615 122.259 112.615H79.0092C72.5865 112.615 67.3616 117.84 67.3616 124.262ZM131.424 124.262V140.461C131.424 145.515 127.313 149.626 122.259 149.626H79.0092C73.9551 149.626 69.8432 145.515 69.8432 140.461V124.262C69.8432 119.208 73.9551 115.097 79.0092 115.097H122.259C127.313 115.097 131.424 119.208 131.424 124.262Z" fill="black"/>
<path d="M150.219 81.1135C148.718 79.3287 146.612 78.2345 144.289 78.0346C141.967 77.8298 139.704 78.5483 137.918 80.0496C136.133 81.5497 135.04 83.6557 134.839 85.9785C134.758 86.9206 134.834 87.8504 135.045 88.7445L124.638 97.4953C117.589 94.1257 109.387 92.1837 100.634 92.1837C91.8806 92.1837 83.6792 94.1257 76.6301 97.4953L66.2224 88.7448C66.4335 87.8506 66.5101 86.9207 66.4285 85.9785C66.228 83.6557 65.1344 81.5497 63.3496 80.0496C61.5647 78.5483 59.3001 77.8286 56.979 78.0346C54.6556 78.2345 52.5496 79.3287 51.0489 81.1135C49.5482 82.8984 48.8321 85.1606 49.0333 87.4835C49.2344 89.8063 50.328 91.9123 52.1128 93.4136C53.7002 94.7489 55.6662 95.4626 57.7164 95.4626C57.9708 95.4626 58.2265 95.4517 58.4834 95.4286C59.4251 95.3476 60.3278 95.1126 61.1724 94.7512L69.445 101.707C59.4628 108.788 53.1373 119.19 53.1373 130.777C53.1373 141.15 58.1253 150.882 67.1822 158.181L67.5233 158.456L76.9178 164.855L89.3257 169.198L104.215 169.818L124.068 166.096L134.614 159.272L134.956 158.997C144.013 151.699 148.13 141.15 148.13 130.777C148.13 119.19 141.805 108.788 131.823 101.707L140.095 94.7512C140.94 95.1126 141.843 95.3476 142.784 95.4286C143.041 95.4517 143.297 95.4626 143.551 95.4626C145.602 95.4626 147.568 94.7489 149.155 93.4136C150.94 91.9123 152.033 89.8063 152.234 87.4835C152.436 85.1606 151.719 82.8984 150.219 81.1135ZM58.2695 92.9568C56.6089 93.0973 54.9876 92.5884 53.7098 91.5136C52.4321 90.44 51.6493 88.9327 51.5057 87.269C51.3616 85.6065 51.8741 83.9877 52.9483 82.7106C54.1824 81.242 55.9527 80.4859 57.7357 80.4859C59.1559 80.4859 60.5833 80.9657 61.7526 81.9496C63.0297 83.0232 63.8125 84.5305 63.9561 86.193C64.1002 87.8555 63.5877 89.4755 62.5135 90.7527C61.4393 92.0298 59.932 92.8126 58.2695 92.9568ZM63.3881 93.3714C63.7523 93.0599 64.0989 92.7237 64.4135 92.3497C64.7278 91.9757 64.9994 91.5766 65.2436 91.1646L74.2257 98.7164C73.3238 99.2085 72.4495 99.7306 71.5927 100.27L63.3881 93.3714ZM147.643 130.777C147.643 140.256 144.103 150.005 135.855 156.79L122.827 165.476L106.076 169.198H93.6684L83.1217 166.096L75.0566 162.994L68.2322 158.456C59.9853 151.67 54.5836 140.213 54.5836 130.734C54.5836 110.822 76.2919 93.3714 101.113 93.3714C125.934 93.3714 147.643 110.865 147.643 130.777ZM129.675 100.27C128.818 99.7306 127.944 99.2085 127.042 98.7164L136.024 91.1644C136.268 91.5766 136.54 91.9757 136.854 92.3497C137.169 92.7237 137.515 93.0599 137.88 93.3714L129.675 100.27ZM147.558 91.5136C146.281 92.5884 144.666 93.101 142.998 92.9568C141.336 92.8126 139.828 92.0298 138.754 90.7527C137.68 89.4755 137.167 87.8555 137.311 86.193C137.455 84.5305 138.237 83.0232 139.515 81.9496C140.684 80.9657 142.112 80.4859 143.532 80.4859C145.314 80.4859 147.085 81.2432 148.32 82.7106C149.394 83.9877 149.906 85.6065 149.762 87.269C149.618 88.9327 148.836 90.44 147.558 91.5136Z" fill="black"/>
<path d="M81.2605 131.272C81.2605 128.58 83.4495 126.391 86.1407 126.391C88.8319 126.391 91.0208 128.58 91.0208 131.272H93.5024C93.5024 127.212 90.1999 123.909 86.1407 123.909C82.0814 123.909 78.7789 127.212 78.7789 131.272H81.2605Z" fill="black"/>
<path d="M116.485 126.391C119.176 126.391 121.365 128.58 121.365 131.272H123.847C123.847 127.212 120.545 123.909 116.485 123.909C112.426 123.909 109.124 127.212 109.124 131.272H111.605C111.605 128.58 113.794 126.391 116.485 126.391Z" fill="black"/>
<path d="M87.1888 138.301C90.9433 140.361 95.9591 141.495 101.313 141.495C106.667 141.495 111.683 140.361 115.437 138.301L114.243 136.124C110.898 137.96 106.185 139.013 101.313 139.013C96.4408 139.013 91.7279 137.96 88.3823 136.124L87.1888 138.301Z" fill="black"/>
<path d="M204.267 27.521C204.267 49.4446 158.54 55.0421 102.134 55.0421C45.7268 55.0421 0 48.9781 0 27.521C0 6.06396 45.7268 0 102.134 0C158.54 0 204.267 5.5975 204.267 27.521Z" fill="#C4C4C4"/>
<path d="M42.6803 67.8639C24.9544 59.8881 24.363 45.4122 27.4092 37.0407C36.975 38.6499 74.7366 44.1399 62.5295 47.3634L62.2078 47.4483C47.1641 51.42 39.7058 53.3891 42.6803 67.8639Z" fill="#C4C4C4"/>
<path d="M41.0156 31.5625C40.5938 32.0677 39.9974 32.4609 39.2266 32.7422C38.4557 33.0182 37.6016 33.1562 36.6641 33.1562C35.6797 33.1562 34.8151 32.9427 34.0703 32.5156C33.3307 32.0833 32.7578 31.4583 32.3516 30.6406C31.9505 29.8229 31.7448 28.862 31.7344 27.7578V26.9844C31.7344 25.849 31.9245 24.8672 32.3047 24.0391C32.6901 23.2057 33.2422 22.5703 33.9609 22.1328C34.6849 21.6901 35.5312 21.4688 36.5 21.4688C37.849 21.4688 38.9036 21.7917 39.6641 22.4375C40.4245 23.0781 40.875 24.013 41.0156 25.2422H38.7344C38.6302 24.5911 38.3984 24.1146 38.0391 23.8125C37.6849 23.5104 37.1953 23.3594 36.5703 23.3594C35.7734 23.3594 35.1667 23.6589 34.75 24.2578C34.3333 24.8568 34.1224 25.7474 34.1172 26.9297V27.6562C34.1172 28.849 34.3438 29.75 34.7969 30.3594C35.25 30.9688 35.9141 31.2734 36.7891 31.2734C37.6693 31.2734 38.2969 31.0859 38.6719 30.7109V28.75H36.5391V27.0234H41.0156V31.5625ZM42.4219 28.6953C42.4219 27.8568 42.5833 27.1094 42.9062 26.4531C43.2292 25.7969 43.6927 25.2891 44.2969 24.9297C44.9062 24.5703 45.612 24.3906 46.4141 24.3906C47.5547 24.3906 48.4844 24.7396 49.2031 25.4375C49.9271 26.1354 50.3307 27.0833 50.4141 28.2812L50.4297 28.8594C50.4297 30.1562 50.0677 31.1979 49.3438 31.9844C48.6198 32.7656 47.6484 33.1562 46.4297 33.1562C45.2109 33.1562 44.237 32.7656 43.5078 31.9844C42.7839 31.2031 42.4219 30.1406 42.4219 28.7969V28.6953ZM44.6797 28.8594C44.6797 29.6615 44.8307 30.276 45.1328 30.7031C45.4349 31.125 45.8672 31.3359 46.4297 31.3359C46.9766 31.3359 47.4036 31.1276 47.7109 30.7109C48.0182 30.2891 48.1719 29.6172 48.1719 28.6953C48.1719 27.9089 48.0182 27.2995 47.7109 26.8672C47.4036 26.4349 46.9714 26.2188 46.4141 26.2188C45.862 26.2188 45.4349 26.4349 45.1328 26.8672C44.8307 27.2943 44.6797 27.9583 44.6797 28.8594ZM51.4688 28.6953C51.4688 27.8568 51.6302 27.1094 51.9531 26.4531C52.276 25.7969 52.7396 25.2891 53.3438 24.9297C53.9531 24.5703 54.6589 24.3906 55.4609 24.3906C56.6016 24.3906 57.5312 24.7396 58.25 25.4375C58.974 26.1354 59.3776 27.0833 59.4609 28.2812L59.4766 28.8594C59.4766 30.1562 59.1146 31.1979 58.3906 31.9844C57.6667 32.7656 56.6953 33.1562 55.4766 33.1562C54.2578 33.1562 53.2839 32.7656 52.5547 31.9844C51.8307 31.2031 51.4688 30.1406 51.4688 28.7969V28.6953ZM53.7266 28.8594C53.7266 29.6615 53.8776 30.276 54.1797 30.7031C54.4818 31.125 54.9141 31.3359 55.4766 31.3359C56.0234 31.3359 56.4505 31.1276 56.7578 30.7109C57.0651 30.2891 57.2188 29.6172 57.2188 28.6953C57.2188 27.9089 57.0651 27.2995 56.7578 26.8672C56.4505 26.4349 56.0182 26.2188 55.4609 26.2188C54.9089 26.2188 54.4818 26.4349 54.1797 26.8672C53.8776 27.2943 53.7266 27.9583 53.7266 28.8594ZM60.5156 28.7109C60.5156 27.3932 60.8099 26.3438 61.3984 25.5625C61.9922 24.7812 62.8021 24.3906 63.8281 24.3906C64.651 24.3906 65.3307 24.6979 65.8672 25.3125V21H68.1328V33H66.0938L65.9844 32.1016C65.4219 32.8047 64.6979 33.1562 63.8125 33.1562C62.8177 33.1562 62.0182 32.7656 61.4141 31.9844C60.8151 31.1979 60.5156 30.1068 60.5156 28.7109ZM62.7734 28.875C62.7734 29.6667 62.9115 30.2734 63.1875 30.6953C63.4635 31.1172 63.8646 31.3281 64.3906 31.3281C65.0885 31.3281 65.5807 31.0339 65.8672 30.4453V27.1094C65.5859 26.5208 65.099 26.2266 64.4062 26.2266C63.3177 26.2266 62.7734 27.1094 62.7734 28.875ZM75.9844 24.5469L76.0547 25.4922C76.6536 24.7578 77.4635 24.3906 78.4844 24.3906C79.5729 24.3906 80.3203 24.8203 80.7266 25.6797C81.3203 24.8203 82.1667 24.3906 83.2656 24.3906C84.1823 24.3906 84.8646 24.6589 85.3125 25.1953C85.7604 25.7266 85.9844 26.5286 85.9844 27.6016V33H83.7188V27.6094C83.7188 27.1302 83.625 26.7812 83.4375 26.5625C83.25 26.3385 82.9193 26.2266 82.4453 26.2266C81.7682 26.2266 81.2995 26.5495 81.0391 27.1953L81.0469 33H78.7891V27.6172C78.7891 27.1276 78.6927 26.7734 78.5 26.5547C78.3073 26.3359 77.9792 26.2266 77.5156 26.2266C76.875 26.2266 76.4115 26.4922 76.125 27.0234V33H73.8672V24.5469H75.9844ZM87.375 28.6953C87.375 27.8568 87.5365 27.1094 87.8594 26.4531C88.1823 25.7969 88.6458 25.2891 89.25 24.9297C89.8594 24.5703 90.5651 24.3906 91.3672 24.3906C92.5078 24.3906 93.4375 24.7396 94.1562 25.4375C94.8802 26.1354 95.2839 27.0833 95.3672 28.2812L95.3828 28.8594C95.3828 30.1562 95.0208 31.1979 94.2969 31.9844C93.5729 32.7656 92.6016 33.1562 91.3828 33.1562C90.1641 33.1562 89.1901 32.7656 88.4609 31.9844C87.737 31.2031 87.375 30.1406 87.375 28.7969V28.6953ZM89.6328 28.8594C89.6328 29.6615 89.7839 30.276 90.0859 30.7031C90.388 31.125 90.8203 31.3359 91.3828 31.3359C91.9297 31.3359 92.3568 31.1276 92.6641 30.7109C92.9714 30.2891 93.125 29.6172 93.125 28.6953C93.125 27.9089 92.9714 27.2995 92.6641 26.8672C92.3568 26.4349 91.9245 26.2188 91.3672 26.2188C90.8151 26.2188 90.388 26.4349 90.0859 26.8672C89.7839 27.2943 89.6328 27.9583 89.6328 28.8594ZM101.523 26.6641C101.216 26.6224 100.945 26.6016 100.711 26.6016C99.8568 26.6016 99.2969 26.8906 99.0312 27.4688V33H96.7734V24.5469H98.9062L98.9688 25.5547C99.4219 24.7786 100.049 24.3906 100.852 24.3906C101.102 24.3906 101.336 24.4245 101.555 24.4922L101.523 26.6641ZM104.695 24.5469L104.766 25.5234C105.37 24.7682 106.18 24.3906 107.195 24.3906C108.091 24.3906 108.758 24.6536 109.195 25.1797C109.633 25.7057 109.857 26.4922 109.867 27.5391V33H107.609V27.5938C107.609 27.1146 107.505 26.7682 107.297 26.5547C107.089 26.3359 106.742 26.2266 106.258 26.2266C105.622 26.2266 105.146 26.4974 104.828 27.0391V33H102.57V24.5469H104.695ZM113.969 33H111.703V24.5469H113.969V33ZM111.57 22.3594C111.57 22.0208 111.682 21.7422 111.906 21.5234C112.135 21.3047 112.445 21.1953 112.836 21.1953C113.221 21.1953 113.529 21.3047 113.758 21.5234C113.987 21.7422 114.102 22.0208 114.102 22.3594C114.102 22.7031 113.984 22.9844 113.75 23.2031C113.521 23.4219 113.216 23.5312 112.836 23.5312C112.456 23.5312 112.148 23.4219 111.914 23.2031C111.685 22.9844 111.57 22.7031 111.57 22.3594ZM117.914 24.5469L117.984 25.5234C118.589 24.7682 119.398 24.3906 120.414 24.3906C121.31 24.3906 121.977 24.6536 122.414 25.1797C122.852 25.7057 123.076 26.4922 123.086 27.5391V33H120.828V27.5938C120.828 27.1146 120.724 26.7682 120.516 26.5547C120.307 26.3359 119.961 26.2266 119.477 26.2266C118.841 26.2266 118.365 26.4974 118.047 27.0391V33H115.789V24.5469H117.914ZM124.477 28.7109C124.477 27.4141 124.784 26.3698 125.398 25.5781C126.018 24.7865 126.852 24.3906 127.898 24.3906C128.826 24.3906 129.547 24.7083 130.062 25.3438L130.156 24.5469H132.203V32.7188C132.203 33.4583 132.034 34.1016 131.695 34.6484C131.362 35.1953 130.891 35.612 130.281 35.8984C129.672 36.1849 128.958 36.3281 128.141 36.3281C127.521 36.3281 126.917 36.2031 126.328 35.9531C125.74 35.7083 125.294 35.3906 124.992 35L125.992 33.625C126.555 34.2552 127.237 34.5703 128.039 34.5703C128.638 34.5703 129.104 34.4089 129.438 34.0859C129.771 33.7682 129.938 33.3151 129.938 32.7266V32.2734C129.417 32.862 128.732 33.1562 127.883 33.1562C126.867 33.1562 126.044 32.7604 125.414 31.9688C124.789 31.1719 124.477 30.1172 124.477 28.8047V28.7109ZM126.734 28.875C126.734 29.6406 126.888 30.2422 127.195 30.6797C127.503 31.112 127.924 31.3281 128.461 31.3281C129.148 31.3281 129.641 31.0703 129.938 30.5547V27C129.635 26.4844 129.148 26.2266 128.477 26.2266C127.935 26.2266 127.508 26.4479 127.195 26.8906C126.888 27.3333 126.734 27.9948 126.734 28.875ZM134.531 35.8516L133.352 35.2344L133.633 34.7266C133.982 34.0911 134.161 33.4583 134.172 32.8281V31.0781H136.078L136.07 32.6406C136.065 33.2188 135.919 33.8021 135.633 34.3906C135.346 34.9792 134.979 35.4661 134.531 35.8516ZM148.406 30.6562H144.297L143.516 33H141.023L145.258 21.625H147.43L151.688 33H149.195L148.406 30.6562ZM144.93 28.7578H147.773L146.344 24.5L144.93 28.7578ZM154.344 24.5469L154.414 25.4922C155.013 24.7578 155.823 24.3906 156.844 24.3906C157.932 24.3906 158.68 24.8203 159.086 25.6797C159.68 24.8203 160.526 24.3906 161.625 24.3906C162.542 24.3906 163.224 24.6589 163.672 25.1953C164.12 25.7266 164.344 26.5286 164.344 27.6016V33H162.078V27.6094C162.078 27.1302 161.984 26.7812 161.797 26.5625C161.609 26.3385 161.279 26.2266 160.805 26.2266C160.128 26.2266 159.659 26.5495 159.398 27.1953L159.406 33H157.148V27.6172C157.148 27.1276 157.052 26.7734 156.859 26.5547C156.667 26.3359 156.339 26.2266 155.875 26.2266C155.234 26.2266 154.771 26.4922 154.484 27.0234V33H152.227V24.5469H154.344ZM169.242 29.8047L170.805 24.5469H173.227L169.828 34.3125L169.641 34.7578C169.135 35.862 168.302 36.4141 167.141 36.4141C166.812 36.4141 166.479 36.3646 166.141 36.2656V34.5547L166.484 34.5625C166.911 34.5625 167.229 34.4974 167.438 34.3672C167.651 34.237 167.818 34.0208 167.938 33.7188L168.203 33.0234L165.242 24.5469H167.672L169.242 29.8047Z" fill="black"/>
</svg>
